# xmcd
#
# Track frame offsets:
#	150
#	16202
#	33042
#	46245
#	62682
#	78947
#	99942
#	116907
#	131947
#	145672
#	158167
#
# Disc length: 2321 seconds
#
# Revision: 12
# Processed by: cddbd v1.5.2PL0 Copyright (c) Steve Scherf et al.
# Submitted via: audiograbber 1.83.01
#
DISCID=85090f0b
DTITLE=Lorrie Morgan - Greatest Hits
DYEAR=1996
DGENRE=Country
TTITLE0=Five Minutes
TTITLE1=Dear Me
TTITLE2=Except For Monday
TTITLE3=A Picture Of Me (Without You)
TTITLE4=Watch Me
TTITLE5=Something In Red
TTITLE6=Back In Your Arms Again
TTITLE7=I Didn't Know My Own Strength
TTITLE8=Standing Tall
TTITLE9=What Part Of No
TTITLE10='Til A Tear Becomes A Rose
EXTD=
EXTT0=
EXTT1=
EXTT2=
EXTT3=
EXTT4=
EXTT5=
EXTT6=
EXTT7=
EXTT8=Feat. The Beach Boys
EXTT9=
EXTT10=Feat. Keith Whitley
PLAYORDER=
